<svg width="25" height="25" viewBox="0 0 25 25" fill="currentColor" xmlns="http://www.w3.org/2000/svg">
<path fill-rule="evenodd" clip-rule="evenodd" d="M7.68118 0.976497C5.78199 1.06219 4.13587 1.52652 2.80666 2.85011C1.47281 4.18066 1.01425 5.8333 0.928345 7.71275C0.874944 8.88581 0.562685 17.748 1.46817 20.0721C2.07879 21.6401 3.28143 22.8456 4.86371 23.4582C5.60203 23.7454 6.44485 23.9398 7.68118 23.9965C18.0188 24.4644 21.8508 24.2097 23.4668 20.0721C23.7535 19.3356 23.9509 18.4935 24.0054 17.2603C24.4779 6.89614 23.9288 4.64965 22.1272 2.85011C20.6981 1.42461 19.0172 0.454239 7.68118 0.976497ZM7.77635 21.9121C6.6445 21.8612 6.0304 21.6726 5.62061 21.5139C4.58975 21.1133 3.81545 20.3422 3.41727 19.3173C2.72771 17.5514 2.95641 9.16392 3.01793 7.80674C3.0783 6.47735 3.34762 5.26238 4.28561 4.3244C5.44649 3.16639 6.94633 2.59886 17.1586 3.05975C18.4913 3.11996 19.709 3.38873 20.6494 4.3244C21.8102 5.4824 22.386 6.99378 21.917 17.1668C21.8659 18.2959 21.6767 18.9085 21.5177 19.3173C20.4671 22.0097 18.0501 22.3834 7.77635 21.9121ZM17.2712 6.30454C17.2712 7.07115 17.8946 7.69452 18.6643 7.69452C19.4339 7.69452 20.0585 7.07115 20.0585 6.30454C20.0585 5.53795 19.4339 4.91514 18.6643 4.91514C17.8946 4.91514 17.2712 5.53795 17.2712 6.30454ZM6.50636 12.4859C6.50636 15.77 9.17523 18.4326 12.4675 18.4326C15.7597 18.4326 18.4286 15.77 18.4286 12.4859C18.4286 9.20184 15.7597 6.54095 12.4675 6.54095C9.17523 6.54095 6.50636 9.20184 6.50636 12.4859ZM8.59827 12.4859C8.59827 10.3552 10.3303 8.62648 12.4675 8.62648C14.6047 8.62648 16.3367 10.3552 16.3367 12.4859C16.3367 14.6178 14.6047 16.3471 12.4675 16.3471C10.3303 16.3471 8.59827 14.6178 8.59827 12.4859Z" fill="white"/>
</svg>
