<svg width="51" height="50" viewBox="0 0 51 50" fill="none" xmlns="http://www.w3.org/2000/svg">
<path d="M25.5 30.0001C28.2614 30.0001 30.5 27.7615 30.5 25.0001C30.5 22.2387 28.2614 20.0001 25.5 20.0001C22.7386 20.0001 20.5 22.2387 20.5 25.0001C20.5 27.7615 22.7386 30.0001 25.5 30.0001Z" fill="black"/>
<path fill-rule="evenodd" clip-rule="evenodd" d="M13.1725 22.9167C14.0507 17.6823 18.1819 13.551 23.4163 12.6729V8.33337H27.583V12.6729C32.8174 13.551 36.9486 17.6823 37.8268 22.9167H42.1663V27.0834H37.8268C36.9486 32.3178 32.8174 36.449 27.583 37.3271V41.6667H23.4163V37.3271C18.1819 36.449 14.0507 32.3178 13.1725 27.0834H8.83301V22.9167H13.1725ZM17.1663 25C17.1663 20.3977 20.8973 16.6667 25.4997 16.6667C30.102 16.6667 33.833 20.3977 33.833 25C33.833 29.6023 30.102 33.3334 25.4997 33.3334C20.8973 33.3334 17.1663 29.6023 17.1663 25Z" fill="black"/>
</svg>
