<svg width="35" height="34" viewBox="0 0 35 34" fill="currentColor" xmlns="http://www.w3.org/2000/svg">
<path d="M29.1843 5.16984C27.6561 3.63017 25.837 2.40972 23.833 1.57943C21.8289 0.749137 19.6796 0.325622 17.5103 0.333481C14.6104 0.336317 11.7619 1.10104 9.25041 2.55108C6.7389 4.00111 4.65247 6.08556 3.20002 8.59565C1.74757 11.1058 0.980135 13.9535 0.974507 16.8534C0.968899 19.7536 1.72533 22.6041 3.16804 25.1198L0.833252 33.6877L9.58872 31.3946C12.0064 32.7396 14.723 33.4565 17.4895 33.4792C21.8875 33.4794 26.1074 31.7423 29.2306 28.6462C32.354 25.5503 34.128 21.3458 34.1666 16.9481C34.152 14.7536 33.7042 12.5835 32.8493 10.5624C31.9944 8.54124 30.7488 6.70872 29.1843 5.16984ZM17.5103 30.6233C15.0457 30.6249 12.6261 29.9624 10.506 28.7054L10.0057 28.3927L4.81491 29.7686L6.19077 24.7029L5.85723 24.1817C4.08372 21.3189 3.42183 17.9049 3.99694 14.5866C4.57205 11.2684 6.34422 8.27628 8.97772 6.1772C11.6112 4.07809 14.9231 3.01778 18.286 3.19713C21.649 3.37645 24.8295 4.78297 27.2248 7.15024C29.8431 9.71057 31.3419 13.203 31.394 16.8647C31.3611 20.5251 29.8837 24.0244 27.2835 26.6012C24.6836 29.1778 21.171 30.6235 17.5103 30.6233ZM25.0359 20.3252C24.619 20.1167 22.5969 19.1161 22.2216 18.991C21.8464 18.8659 21.5545 18.7825 21.2835 19.1995C20.8758 19.7584 20.4372 20.2941 19.9702 20.8046C19.7409 21.0965 19.4907 21.1173 19.0738 20.8046C16.6967 19.8653 14.7163 18.135 13.4662 15.9057C13.0284 15.1761 13.8831 15.2178 14.6752 13.6543C14.7338 13.5416 14.7643 13.4165 14.7643 13.2895C14.7643 13.1626 14.7338 13.0375 14.6752 12.9247C14.6752 12.7162 13.7372 10.6733 13.4036 9.86027C13.0701 9.04726 12.7365 9.17234 12.4655 9.15149H11.6525C11.4419 9.15472 11.2343 9.2029 11.0438 9.29277C10.8533 9.38264 10.6841 9.51216 10.5477 9.67265C10.0799 10.1275 9.71507 10.6773 9.47774 11.285C9.2404 11.8927 9.13609 12.5442 9.1718 13.1957C9.30251 14.7552 9.88981 16.2416 10.8604 17.4692C12.6369 20.1288 15.0715 22.2833 17.9273 23.7231C19.4251 24.5974 21.1658 24.9631 22.8887 24.7654C23.4624 24.6516 24.0059 24.4184 24.4835 24.0806C24.9613 23.7431 25.3625 23.3087 25.6613 22.8059C25.9381 22.1922 26.0253 21.5099 25.9114 20.8463C25.7238 20.6379 25.4528 20.5336 25.0359 20.3252Z" fill="#487257"/>
</svg>
