<svg width="51" height="50" viewBox="0 0 51 50" fill="none" xmlns="http://www.w3.org/2000/svg">
<path d="M37.1841 13.1698C35.6558 11.6302 33.8368 10.4097 31.8328 9.57943C29.8286 8.74914 27.6794 8.32562 25.5101 8.33348C22.6102 8.33632 19.7617 9.10104 17.2502 10.5511C14.7387 12.0011 12.6522 14.0856 11.1998 16.5956C9.74733 19.1058 8.97989 21.9535 8.97426 24.8534C8.96866 27.7536 9.72509 30.6041 11.1678 33.1198L8.83301 41.6877L17.5885 39.3946C20.0061 40.7396 22.7227 41.4565 25.4893 41.4792C29.8872 41.4794 34.1071 39.7423 37.2303 36.6462C40.3538 33.5503 42.1278 29.3458 42.1663 24.9481C42.1518 22.7536 41.704 20.5835 40.8491 18.5624C39.9942 16.5412 38.7486 14.7087 37.1841 13.1698ZM25.5101 38.6233C23.0454 38.6249 20.6258 37.9624 18.5057 36.7054L18.0054 36.3927L12.8147 37.7686L14.1905 32.7029L13.857 32.1817C12.0835 29.3189 11.4216 25.9049 11.9967 22.5866C12.5718 19.2684 14.344 16.2763 16.9775 14.1772C19.611 12.0781 22.9229 11.0178 26.2858 11.1971C29.6487 11.3764 32.8293 12.783 35.2245 15.1502C37.8428 17.7106 39.3417 21.203 39.3938 24.8647C39.3608 28.5251 37.8835 32.0244 35.2833 34.6012C32.6833 37.1778 29.1707 38.6235 25.5101 38.6233ZM33.0356 28.3252C32.6187 28.1167 30.5966 27.1161 30.2214 26.991C29.8461 26.8659 29.5543 26.7825 29.2833 27.1995C28.8755 27.7584 28.4369 28.2941 27.97 28.8046C27.7407 29.0965 27.4905 29.1173 27.0736 28.8046C24.6965 27.8653 22.7161 26.135 21.4659 23.9057C21.0281 23.1761 21.8828 23.2178 22.675 21.6543C22.7336 21.5416 22.764 21.4165 22.764 21.2895C22.764 21.1626 22.7336 21.0375 22.675 20.9247C22.675 20.7162 21.7369 18.6733 21.4034 17.8603C21.0698 17.0473 20.7363 17.1723 20.4653 17.1515H19.6523C19.4416 17.1547 19.2341 17.2029 19.0436 17.2928C18.853 17.3826 18.6839 17.5122 18.5474 17.6727C18.0797 18.1275 17.7148 18.6773 17.4775 19.285C17.2402 19.8927 17.1358 20.5442 17.1716 21.1957C17.3023 22.7552 17.8896 24.2416 18.8601 25.4692C20.6366 28.1288 23.0713 30.2833 25.927 31.7231C27.4248 32.5974 29.1655 32.9631 30.8885 32.7654C31.4622 32.6516 32.0056 32.4184 32.4832 32.0806C32.961 31.7431 33.3623 31.3087 33.661 30.8059C33.9379 30.1922 34.025 29.5099 33.9112 28.8463C33.7236 28.6379 33.4526 28.5336 33.0356 28.3252Z" fill="black"/>
</svg>
