<svg width="27" height="20" viewBox="0 0 27 20" fill="currentColor" xmlns="http://www.w3.org/2000/svg">
<path d="M11.4878 14.7429C10.5732 14.7429 9.97866 14.0569 9.93293 13.0966C9.93293 12.9136 9.93293 6.87705 9.93293 6.83132C9.97866 5.91669 10.6189 5.23071 11.4878 5.23071C11.7622 5.23071 12.0366 5.27644 12.2652 5.41364C12.7683 5.68803 18.2561 8.66059 18.2561 8.66059C18.7591 8.98071 19.0335 9.43803 19.0335 9.94108C19.0335 10.4441 18.7591 10.9014 18.3018 11.2216C18.3018 11.2216 12.311 14.4685 12.2652 14.5142C12.0366 14.6514 11.7622 14.7429 11.4878 14.7429ZM11.8537 7.33437V12.5021C11.8537 12.5478 11.8537 12.5935 11.8537 12.5935L16.7012 9.98681C16.7012 9.98681 12.1738 7.5173 11.8537 7.33437ZM13.5457 19.6819C10.7561 19.6819 7.37195 19.4533 4.71951 19.1331C2.43293 18.8588 1.15244 17.6697 0.786585 15.5203C0.512195 14.1027 0.375 12.1362 0.375 9.98681C0.375 7.83742 0.512195 5.87096 0.740854 4.45327C1.10671 2.30388 2.3872 1.11486 4.67378 0.840468C7.32622 0.520346 10.7104 0.291687 13.5 0.291687C16.2896 0.291687 19.6738 0.520346 22.3262 0.840468C24.6128 1.11486 25.8933 2.30388 26.2591 4.45327C26.4878 5.87096 26.625 7.83742 26.625 9.98681C26.625 12.1362 26.4878 14.1027 26.2591 15.5203C25.8933 17.6697 24.6128 18.8588 22.3262 19.1331C19.7195 19.4533 16.3354 19.6819 13.5457 19.6819ZM13.5457 2.16669C10.8476 2.16669 7.55488 2.34961 4.9939 2.66974C3.30183 2.89839 2.84451 3.67583 2.66159 4.77339C2.43293 6.14535 2.29573 7.97461 2.29573 9.98681C2.29573 11.999 2.43293 13.8283 2.66159 15.1545C2.84451 16.2521 3.34756 17.0295 4.9939 17.2582C7.55488 17.5783 10.8476 17.7612 13.5457 17.7612C16.2439 17.7612 19.5366 17.5783 22.0976 17.2582C23.7896 17.0295 24.247 16.2521 24.4299 15.1545C24.6585 13.8283 24.7957 11.999 24.7957 9.98681C24.7957 7.97461 24.6585 6.14534 24.4299 4.81913C24.247 3.72156 23.7439 2.94413 22.0976 2.71547C19.5366 2.39535 16.2439 2.16669 13.5457 2.16669Z" fill="white"/>
</svg>
