<svg width="35" height="34" viewBox="0 0 35 34" fill="currentColor" xmlns="http://www.w3.org/2000/svg">
<path d="M17.5 22.0001C20.2614 22.0001 22.5 19.7615 22.5 17.0001C22.5 14.2387 20.2614 12.0001 17.5 12.0001C14.7386 12.0001 12.5 14.2387 12.5 17.0001C12.5 19.7615 14.7386 22.0001 17.5 22.0001Z" fill="#487257"/>
<path fill-rule="evenodd" clip-rule="evenodd" d="M5.17275 14.9167C6.05092 9.68231 10.1822 5.55104 15.4166 4.67287V0.333374H19.5833V4.67287C24.8176 5.55104 28.9489 9.68231 29.827 14.9167H34.1666V19.0834H29.827C28.9489 24.3178 24.8176 28.449 19.5833 29.3271V33.6667H15.4166V29.3271C10.1822 28.449 6.05092 24.3178 5.17275 19.0834H0.833252V14.9167H5.17275ZM9.16659 17C9.16659 12.3977 12.8975 8.66671 17.4999 8.66671C22.1022 8.66671 25.8333 12.3977 25.8333 17C25.8333 21.6023 22.1022 25.3334 17.4999 25.3334C12.8975 25.3334 9.16659 21.6023 9.16659 17Z" fill="#487257"/>
</svg>
