<svg width="51" height="50" viewBox="0 0 51 50" fill="none" xmlns="http://www.w3.org/2000/svg">
<path fill-rule="evenodd" clip-rule="evenodd" d="M24.458 18.2291C25.321 18.2291 26.0205 18.9287 26.0205 19.7916V25.3944L30.2504 29.6243C30.8606 30.2345 30.8606 31.2238 30.2504 31.834C29.6402 32.4442 28.6508 32.4442 28.0407 31.834L22.8955 26.6888V19.7916C22.8955 18.9287 23.5951 18.2291 24.458 18.2291Z" fill="black"/>
<path fill-rule="evenodd" clip-rule="evenodd" d="M24.458 13.5416C17.5544 13.5416 11.958 19.1381 11.958 26.0416C11.958 32.9452 17.5544 38.5416 24.458 38.5416C31.3616 38.5416 36.958 32.9452 36.958 26.0416C36.958 19.1381 31.3616 13.5416 24.458 13.5416ZM8.83301 26.0416C8.83301 17.4122 15.8286 10.4166 24.458 10.4166C33.0875 10.4166 40.083 17.4122 40.083 26.0416C40.083 34.6711 33.0875 41.6666 24.458 41.6666C15.8286 41.6666 8.83301 34.6711 8.83301 26.0416Z" fill="black"/>
</svg>
