<svg width="25" height="25" viewBox="0 0 25 25" fill="currentColor" xmlns="http://www.w3.org/2000/svg">
<path d="M22.8704 6.88241C21.6103 6.88098 20.4022 6.37978 19.5111 5.48875C18.6201 4.59773 18.1189 3.38965 18.1175 2.12955C18.1175 1.78576 17.9809 1.45606 17.7378 1.21297C17.4947 0.96988 17.165 0.833313 16.8213 0.833313H12.5005C12.1567 0.833313 11.827 0.96988 11.5839 1.21297C11.3408 1.45606 11.2042 1.78576 11.2042 2.12955V15.956C11.2041 16.2653 11.121 16.5689 10.9635 16.8351C10.806 17.1013 10.58 17.3204 10.309 17.4695C10.0381 17.6186 9.73202 17.6923 9.42288 17.6828C9.11373 17.6733 8.81279 17.581 8.55147 17.4155C8.29014 17.2501 8.07799 17.0176 7.93717 16.7422C7.79634 16.4668 7.73199 16.1587 7.75082 15.85C7.76966 15.5413 7.871 15.2433 8.04427 14.9871C8.21753 14.7309 8.45637 14.5258 8.73588 14.3934C8.95732 14.2882 9.14438 14.1224 9.27536 13.9151C9.40634 13.7079 9.47587 13.4678 9.47587 13.2226L9.47593 8.72475C9.47593 8.53529 9.4344 8.34813 9.35426 8.17645C9.27411 8.00477 9.15731 7.85275 9.01207 7.73109C8.86683 7.60942 8.69669 7.52108 8.51361 7.47228C8.33054 7.42347 8.139 7.41539 7.95247 7.44861C6.33411 7.73833 4.83197 8.48367 3.62235 9.59716C2.41274 10.7106 1.54584 12.1461 1.1234 13.735C0.700961 15.3238 0.740517 17.0003 1.23742 18.5675C1.73433 20.1347 2.66797 21.5276 3.92876 22.5828C5.18955 23.638 6.72517 24.3117 8.35539 24.5247C9.98562 24.7378 11.6428 24.4814 13.1324 23.7857C14.6221 23.09 15.8823 21.9838 16.7653 20.5969C17.6483 19.2101 18.1174 17.6001 18.1175 15.956L18.1174 12.788C19.6129 13.4554 21.2327 13.7988 22.8704 13.7957C23.2141 13.7957 23.5438 13.6591 23.7869 13.416C24.03 13.1729 24.1666 12.8432 24.1666 12.4994V8.17864C24.1666 7.83486 24.03 7.50516 23.7869 7.26206C23.5438 7.01897 23.2141 6.88241 22.8704 6.88241ZM21.5741 11.1118C20.1313 10.9067 18.7599 10.3539 17.5782 9.50098C17.3845 9.36168 17.1562 9.27851 16.9184 9.26063C16.6805 9.24275 16.4423 9.29086 16.23 9.39965C16.0177 9.50844 15.8396 9.67371 15.7152 9.87724C15.5908 10.0808 15.525 10.3147 15.525 10.5532L15.525 15.956C15.5242 17.0384 15.233 18.1007 14.6817 19.0321C14.1305 19.9636 13.3395 20.7301 12.3911 21.2517C11.4428 21.7733 10.3718 22.0309 9.29001 21.9976C8.20818 21.9643 7.1551 21.6414 6.24058 21.0626C5.32606 20.4837 4.58361 19.67 4.09066 18.7065C3.59771 17.7429 3.37231 16.6647 3.43798 15.5844C3.50365 14.504 3.85797 13.4611 4.464 12.5643C5.07003 11.6676 5.90556 10.9498 6.88346 10.486L6.88341 12.5003C6.29432 12.9423 5.82798 13.5275 5.52866 14.2003C5.22935 14.8732 5.10699 15.6114 5.17322 16.3449C5.23945 17.0783 5.49207 17.7827 5.90708 18.3911C6.32208 18.9994 6.88571 19.4916 7.54444 19.8209C8.20317 20.1502 8.93513 20.3056 9.67083 20.2724C10.4065 20.2393 11.1215 20.0186 11.748 19.6314C12.3744 19.2441 12.8914 18.7032 13.25 18.06C13.6086 17.4167 13.7968 16.6925 13.7967 15.956V3.42578H15.6395C15.9069 4.90152 16.6184 6.26047 17.6789 7.32097C18.7394 8.38147 20.0984 9.09297 21.5741 9.36037V11.1118Z" fill="white"/>
</svg>
