<svg width="33" height="32" viewBox="0 0 33 32" fill="currentColor" xmlns="http://www.w3.org/2000/svg">
<path fill-rule="evenodd" clip-rule="evenodd" d="M16.4583 8.22913C17.3212 8.22913 18.0208 8.92868 18.0208 9.79163V15.3944L22.2506 19.6243C22.8608 20.2345 22.8608 21.2238 22.2506 21.834C21.6404 22.4442 20.6511 22.4442 20.0409 21.834L14.8958 16.6888V9.79163C14.8958 8.92868 15.5953 8.22913 16.4583 8.22913Z" fill="#487257"/>
<path fill-rule="evenodd" clip-rule="evenodd" d="M16.4583 3.54163C9.55469 3.54163 3.95825 9.13807 3.95825 16.0416C3.95825 22.9452 9.55469 28.5416 16.4583 28.5416C23.3618 28.5416 28.9583 22.9452 28.9583 16.0416C28.9583 9.13807 23.3618 3.54163 16.4583 3.54163ZM0.833252 16.0416C0.833252 7.41218 7.8288 0.416626 16.4583 0.416626C25.0877 0.416626 32.0833 7.41218 32.0833 16.0416C32.0833 24.6711 25.0877 31.6666 16.4583 31.6666C7.8288 31.6666 0.833252 24.6711 0.833252 16.0416Z" fill="#487257"/>
</svg>
