<svg width="530" height="80" viewBox="0 0 530 80" fill="none" xmlns="http://www.w3.org/2000/svg">
<g filter="url(#filter0_d_252_1077)">
<path d="M70.3791 29.8298L70.3791 60.3398C66.8354 64.1232 62.4746 67.0474 57.6291 68.8897C52.3083 70.9334 46.6486 71.9513 40.9491 71.8897C34.3476 72.0342 27.8151 70.5215 21.9491 67.4898C16.6016 64.6499 12.2114 60.2946 9.32914 54.9698C6.26875 49.1592 4.73737 42.6655 4.87914 36.0998C4.74994 29.5861 6.35843 23.1555 9.53914 17.4698C12.6216 12.0639 17.1838 7.65084 22.6891 4.74977C28.6775 1.63652 35.3512 0.0755264 42.0991 0.209757C46.9853 0.0887004 51.841 1.0118 56.3419 2.91735C60.8429 4.82291 64.8853 7.66706 68.1991 11.2598L58.5391 20.8398C56.3773 18.6816 53.8027 16.9811 50.9691 15.8398C48.1275 14.6803 45.0882 14.0826 42.0191 14.0798C35.4391 14.0798 30.2391 16.0531 26.4191 19.9998C22.5991 23.9464 20.6925 29.3064 20.6991 36.0798C20.6146 40.0749 21.4891 44.0322 23.2491 47.6198C24.8636 50.859 27.4 53.5484 30.5391 55.3498C33.8433 57.223 37.5918 58.1696 41.3891 58.0898C47.8491 58.0898 52.9991 56.4231 56.8391 53.0898V42.6398H38.2191V29.8298L70.3791 29.8298Z" fill="white"/>
<path d="M100.919 49.2897L91.6289 49.2897L91.6289 71.8797H75.6289L75.6289 3.42973L108.939 3.42973C113.442 3.33354 117.901 4.32491 121.939 6.31973C125.549 8.15263 128.541 11.008 130.539 14.5297C132.59 18.2381 133.625 22.4227 133.539 26.6597C133.674 31.4207 132.271 36.0985 129.539 39.9997C126.678 43.8253 122.642 46.6074 118.049 47.9198L137.409 71.9197L118.319 71.9197L100.919 49.2897ZM114.919 19.6697C113.059 17.9697 110.436 17.1197 107.049 17.1197L91.5389 17.1197V36.3797L107.089 36.3797C110.536 36.3797 113.176 35.5497 115.009 33.8897C116.775 31.94 117.749 29.4007 117.74 26.77C117.73 24.1393 116.739 21.607 114.959 19.6697H114.919Z" fill="white"/>
<path d="M154.16 67.4299C148.719 64.594 144.23 60.2233 141.25 54.8599C138.265 49.0192 136.709 42.5539 136.709 35.9949C136.709 29.4359 138.265 22.9706 141.25 17.1299C144.228 11.7576 148.716 7.37673 154.16 4.52991C160.211 1.6015 166.847 0.0803223 173.57 0.0803223C180.292 0.0803223 186.928 1.6015 192.98 4.52991C198.416 7.36931 202.9 11.7394 205.88 17.0999C208.87 22.9386 210.43 29.4048 210.43 35.9649C210.43 42.525 208.87 48.9912 205.88 54.8299C202.903 60.1926 198.418 64.5634 192.98 67.3999C186.928 70.3283 180.292 71.8495 173.57 71.8495C166.847 71.8495 160.211 70.3283 154.16 67.3999V67.4299ZM184.47 54.9099C187.599 53.1561 190.147 50.5246 191.8 47.3399C193.504 43.8009 194.39 39.9232 194.39 35.9949C194.39 32.0666 193.504 28.1889 191.8 24.6499C190.147 21.4653 187.599 18.8338 184.47 17.0799C181.137 15.2356 177.377 14.3042 173.57 14.3799C169.777 14.2991 166.032 15.2311 162.72 17.0799C159.61 18.8468 157.078 21.4759 155.43 24.6499C153.725 28.1889 152.839 32.0666 152.839 35.9949C152.839 39.9232 153.725 43.8009 155.43 47.3399C157.078 50.5139 159.61 53.143 162.72 54.9099C166.024 56.75 169.758 57.6784 173.54 57.5999C177.357 57.684 181.128 56.7559 184.47 54.9099Z" fill="white"/>
<path d="M354.539 3.42993L368.909 3.42993V71.8799H353.009V29.0499L332.869 53.6899H329.739L309.399 28.95V71.8799H293.469V3.42993L307.839 3.42993L331.209 32.5299L354.539 3.42993Z" fill="white"/>
<path d="M373.389 3.42993L389.389 3.42993V71.8799H373.389V3.42993Z" fill="white"/>
<path d="M439.139 3.42993L455.079 3.42993V71.8799H440.709L409.709 29.5399L409.909 48.0199V71.8799H393.969V3.42993L408.339 3.42993L439.339 45.9699L439.139 27.6799V3.42993Z" fill="white"/>
<path d="M525.129 29.8298V60.3398C521.585 64.1232 517.225 67.0474 512.379 68.8897C507.062 70.9326 501.405 71.9506 495.709 71.8897C489.108 72.0338 482.575 70.5211 476.709 67.4898C471.362 64.6499 466.971 60.2946 464.089 54.9698C461.032 49.1583 459.504 42.6646 459.649 36.0998C459.53 29.5867 461.149 23.1595 464.339 17.4798C467.422 12.0739 471.984 7.66083 477.489 4.75976C483.478 1.64773 490.151 0.086818 496.899 0.219767C501.785 0.0987103 506.641 1.02179 511.142 2.92735C515.643 4.8329 519.685 7.67704 522.999 11.2698L513.329 20.8498C511.164 18.6913 508.586 16.9909 505.749 15.8498C502.892 14.684 499.835 14.0862 496.749 14.0898C490.169 14.0898 484.972 16.0631 481.159 20.0098C477.346 23.9564 475.436 29.3164 475.429 36.0898C475.345 40.0849 476.219 44.0422 477.979 47.6298C479.579 50.8569 482.094 53.5418 485.209 55.3498C488.513 57.223 492.262 58.1696 496.059 58.0898C502.519 58.0898 507.669 56.4231 511.509 53.0898V42.6398H492.969V29.8298L525.129 29.8298Z" fill="white"/>
<path d="M228.599 71.8799H214.229V3.42993L230.169 3.42993V46.2599L250.309 21.6199H253.439L273.779 46.3599V3.42993L289.71 3.42993V71.8799H275.339L251.969 42.7399L228.599 71.8799Z" fill="white"/>
</g>
<defs>
<filter id="filter0_d_252_1077" x="0.870117" y="0.0803223" width="528.259" height="79.8395" filterUnits="userSpaceOnUse" color-interpolation-filters="sRGB">
<feFlood flood-opacity="0" result="BackgroundImageFix"/>
<feColorMatrix in="SourceAlpha" type="matrix" values="0 0 0 0 0 0 0 0 0 0 0 0 0 0 0 0 0 0 127 0" result="hardAlpha"/>
<feOffset dy="4"/>
<feGaussianBlur stdDeviation="2"/>
<feComposite in2="hardAlpha" operator="out"/>
<feColorMatrix type="matrix" values="0 0 0 0 0 0 0 0 0 0 0 0 0 0 0 0 0 0 0.25 0"/>
<feBlend mode="normal" in2="BackgroundImageFix" result="effect1_dropShadow_252_1077"/>
<feBlend mode="normal" in="SourceGraphic" in2="effect1_dropShadow_252_1077" result="shape"/>
</filter>
</defs>
</svg>
