<svg width="72" height="522" viewBox="0 0 72 522" fill="none" xmlns="http://www.w3.org/2000/svg">
<path d="M29.8293 455.62L60.3393 455.62C64.1227 459.164 67.047 463.525 68.8893 468.37C70.9329 473.691 71.9508 479.351 71.8893 485.05C72.0337 491.652 70.521 498.184 67.4893 504.05C64.6494 509.398 60.2941 513.788 54.9693 516.67C49.1587 519.731 42.665 521.262 36.0993 521.12C29.5856 521.25 23.1551 519.641 17.4693 516.46C12.0634 513.378 7.65035 508.816 4.74928 503.31C1.63604 497.322 0.0750368 490.648 0.209267 483.9C0.0882103 479.014 1.01131 474.158 2.91686 469.658C4.82242 465.157 7.66657 461.114 11.2593 457.8L20.8393 467.46C18.6811 469.622 16.9806 472.197 15.8393 475.03C14.6798 477.872 14.0821 480.911 14.0793 483.98C14.0793 490.56 16.0526 495.76 19.9993 499.58C23.9459 503.4 29.3059 505.307 36.0793 505.3C40.0744 505.385 44.0317 504.51 47.6193 502.75C50.8585 501.136 53.5479 498.6 55.3493 495.46C57.2225 492.156 58.1691 488.408 58.0893 484.61C58.0893 478.15 56.4226 473 53.0893 469.16L42.6393 469.16L42.6393 487.78L29.8293 487.78L29.8293 455.62Z" fill="black"/>
<path d="M49.2893 425.08L49.2893 434.37L71.8792 434.37L71.8792 450.37L3.42924 450.37L3.42924 417.06C3.33305 412.558 4.32442 408.098 6.31924 404.06C8.15214 400.45 11.0075 397.459 14.5292 395.46C18.2376 393.409 22.4222 392.374 26.6592 392.46C31.4202 392.325 36.098 393.728 39.9992 396.46C43.8248 399.321 46.6069 403.357 47.9193 407.95L71.9193 388.59L71.9193 407.68L49.2893 425.08ZM19.6693 411.08C17.9693 412.94 17.1192 415.564 17.1192 418.95L17.1192 434.46L36.3793 434.46L36.3793 418.91C36.3793 415.464 35.5492 412.824 33.8892 410.99C31.9395 409.224 29.4002 408.25 26.7695 408.26C24.1388 408.269 21.6065 409.261 19.6693 411.04L19.6693 411.08Z" fill="black"/>
<path d="M67.4297 371.84C64.5938 377.281 60.2231 381.77 54.8596 384.75C49.019 387.735 42.5536 389.291 35.9947 389.291C29.4357 389.291 22.9703 387.735 17.1297 384.75C11.7573 381.772 7.37649 377.284 4.52966 371.84C1.60125 365.789 0.0800768 359.153 0.0800765 352.43C0.0800762 345.708 1.60125 339.072 4.52966 333.02C7.36906 327.584 11.7391 323.1 17.0997 320.12C22.9384 317.13 29.4045 315.57 35.9647 315.57C42.5248 315.57 48.9909 317.13 54.8296 320.12C60.1924 323.097 64.5631 327.582 67.3997 333.02C70.3281 339.072 71.8492 345.708 71.8492 352.43C71.8492 359.153 70.3281 365.789 67.3997 371.84L67.4297 371.84ZM54.9097 341.53C53.1558 338.401 50.5243 335.853 47.3397 334.2C43.8007 332.496 39.9229 331.61 35.9947 331.61C32.0664 331.61 28.1887 332.496 24.6497 334.2C21.465 335.853 18.8335 338.401 17.0796 341.53C15.2353 344.863 14.3039 348.623 14.3797 352.43C14.2989 356.223 15.2309 359.968 17.0796 363.28C18.8466 366.39 21.4757 368.922 24.6497 370.57C28.1887 372.275 32.0664 373.161 35.9947 373.161C39.9229 373.161 43.8007 372.275 47.3397 370.57C50.5137 368.922 53.1428 366.39 54.9097 363.28C56.7498 359.976 57.6781 356.242 57.5997 352.46C57.6838 348.643 56.7557 344.872 54.9097 341.53Z" fill="black"/>
<path d="M3.42968 171.46L3.42968 157.09L71.8797 157.09L71.8797 172.99L29.0497 172.99L53.6897 193.13L53.6897 196.26L28.9497 216.6L71.8797 216.6L71.8797 232.53L3.42969 232.53L3.42969 218.16L32.5297 194.79L3.42968 171.46Z" fill="black"/>
<path d="M3.42969 152.61L3.42969 136.61L71.8797 136.61L71.8797 152.61L3.42969 152.61Z" fill="black"/>
<path d="M3.42969 86.8603L3.42968 70.9203L71.8797 70.9203L71.8797 85.2902L29.5397 116.29L48.0197 116.09L71.8797 116.09L71.8797 132.03L3.42969 132.03L3.42969 117.66L45.9697 86.6603L27.6797 86.8603L3.42969 86.8603Z" fill="black"/>
<path d="M29.8295 0.870398L60.3395 0.870397C64.1229 4.41415 67.0472 8.77497 68.8895 13.6204C70.9324 18.938 71.9503 24.5943 71.8895 30.2904C72.0336 36.8919 70.5208 43.4243 67.4895 49.2904C64.6497 54.638 60.2943 59.0281 54.9695 61.9104C49.1581 64.9674 42.6643 66.4953 36.0995 66.3504C29.5864 66.4692 23.1593 64.8503 17.4795 61.6604C12.0737 58.578 7.66059 54.0157 4.75952 48.5104C1.64748 42.5216 0.0865725 35.8482 0.219521 29.1004C0.0984643 24.2143 1.02155 19.3585 2.9271 14.8576C4.83266 10.3567 7.67679 6.31427 11.2695 3.00041L20.8495 12.6705C18.6911 14.836 16.9906 17.4138 15.8495 20.2504C14.6837 23.1076 14.0859 26.1646 14.0895 29.2504C14.0895 35.8304 16.0629 41.0271 20.0095 44.8404C23.9562 48.6538 29.3162 50.5637 36.0895 50.5704C40.0847 50.6549 44.0419 49.7805 47.6295 48.0204C50.8567 46.4204 53.5416 43.9059 55.3495 40.7904C57.2228 37.4863 58.1694 33.7378 58.0895 29.9404C58.0895 23.4804 56.4229 18.3305 53.0895 14.4905L42.6395 14.4905L42.6395 33.0304L29.8295 33.0304L29.8295 0.870398Z" fill="black"/>
<path d="M71.8797 297.4L71.8797 311.77L3.42969 311.77L3.42969 295.83L46.2597 295.83L21.6197 275.69L21.6197 272.56L46.3597 252.22L3.42968 252.22L3.42968 236.29L71.8797 236.29L71.8797 250.66L42.7397 274.03L71.8797 297.4Z" fill="black"/>
</svg>
