<svg width="72" height="522" viewBox="0 0 72 522" fill="currentColor" xmlns="http://www.w3.org/2000/svg">
<path d="M29.8297 455.62L60.3398 455.62C64.1231 459.164 67.0474 463.525 68.8897 468.37C70.9334 473.691 71.9513 479.351 71.8897 485.05C72.0342 491.652 70.5215 498.184 67.4898 504.05C64.6499 509.398 60.2946 513.788 54.9698 516.67C49.1592 519.731 42.6655 521.262 36.0998 521.12C29.5861 521.25 23.1555 519.641 17.4698 516.46C12.0639 513.378 7.65084 508.816 4.74976 503.31C1.63652 497.322 0.075525 490.648 0.209755 483.9C0.0886985 479.014 1.0118 474.158 2.91735 469.658C4.82291 465.157 7.66706 461.114 11.2598 457.8L20.8398 467.46C18.6816 469.622 16.9811 472.197 15.8398 475.03C14.6803 477.872 14.0826 480.911 14.0798 483.98C14.0798 490.56 16.0531 495.76 19.9998 499.58C23.9464 503.4 29.3064 505.307 36.0798 505.3C40.0749 505.385 44.0322 504.51 47.6198 502.75C50.859 501.136 53.5484 498.6 55.3498 495.46C57.223 492.156 58.1696 488.408 58.0898 484.61C58.0898 478.15 56.4231 473 53.0898 469.16L42.6397 469.16L42.6397 487.78L29.8298 487.78L29.8297 455.62Z" fill="#474747"/>
<path d="M49.2897 425.08L49.2897 434.37L71.8797 434.37L71.8797 450.37L3.42973 450.37L3.42973 417.06C3.33353 412.558 4.3249 408.098 6.31973 404.06C8.15263 400.45 11.008 397.459 14.5297 395.46C18.2381 393.409 22.4227 392.374 26.6597 392.46C31.4207 392.325 36.0985 393.728 39.9997 396.46C43.8253 399.321 46.6074 403.357 47.9197 407.95L71.9197 388.59L71.9197 407.68L49.2897 425.08ZM19.6697 411.08C17.9697 412.94 17.1197 415.564 17.1197 418.95L17.1197 434.46L36.3797 434.46L36.3797 418.91C36.3797 415.464 35.5497 412.824 33.8897 410.99C31.94 409.224 29.4007 408.25 26.77 408.26C24.1393 408.269 21.607 409.261 19.6697 411.04L19.6697 411.08Z" fill="#474747"/>
<path d="M67.4299 371.84C64.594 377.281 60.2233 381.77 54.8599 384.75C49.0192 387.735 42.5539 389.291 35.9949 389.291C29.4359 389.291 22.9706 387.735 17.1299 384.75C11.7576 381.772 7.37673 377.284 4.52991 371.84C1.6015 365.789 0.0803209 359.153 0.0803207 352.43C0.0803204 345.708 1.6015 339.072 4.5299 333.02C7.36931 327.584 11.7394 323.1 17.0999 320.12C22.9386 317.13 29.4048 315.57 35.9649 315.57C42.525 315.57 48.9912 317.13 54.8299 320.12C60.1926 323.097 64.5634 327.582 67.3999 333.02C70.3283 339.072 71.8495 345.708 71.8495 352.43C71.8495 359.153 70.3283 365.789 67.3999 371.84L67.4299 371.84ZM54.9099 341.53C53.156 338.401 50.5245 335.853 47.3399 334.2C43.8009 332.496 39.9232 331.61 35.9949 331.61C32.0666 331.61 28.1889 332.496 24.6499 334.2C21.4653 335.853 18.8338 338.401 17.0799 341.53C15.2356 344.863 14.3042 348.623 14.3799 352.43C14.2991 356.223 15.2311 359.968 17.0799 363.28C18.8468 366.39 21.4759 368.922 24.6499 370.57C28.1889 372.275 32.0666 373.161 35.9949 373.161C39.9232 373.161 43.8009 372.275 47.3399 370.57C50.5139 368.922 53.143 366.39 54.9099 363.28C56.75 359.976 57.6784 356.242 57.5999 352.46C57.684 348.643 56.7559 344.872 54.9099 341.53Z" fill="#474747"/>
<path d="M3.42993 171.46L3.42993 157.09L71.8799 157.09L71.8799 172.99L29.0499 172.99L53.6899 193.13L53.6899 196.26L28.95 216.6L71.8799 216.6L71.8799 232.53L3.42993 232.53L3.42993 218.16L32.5299 194.79L3.42993 171.46Z" fill="#474747"/>
<path d="M3.42993 152.61L3.42993 136.61L71.8799 136.61L71.8799 152.61L3.42993 152.61Z" fill="#474747"/>
<path d="M3.42993 86.8603L3.42993 70.9203L71.8799 70.9203L71.8799 85.2902L29.5399 116.29L48.0199 116.09L71.8799 116.09L71.8799 132.03L3.42993 132.03L3.42993 117.66L45.9699 86.6603L27.6799 86.8603L3.42993 86.8603Z" fill="#474747"/>
<path d="M29.8297 0.870398L60.3398 0.870397C64.1231 4.41415 67.0474 8.77498 68.8897 13.6204C70.9326 18.938 71.9506 24.5943 71.8897 30.2904C72.0338 36.8919 70.5211 43.4243 67.4898 49.2904C64.6499 54.638 60.2946 59.0281 54.9698 61.9104C49.1583 64.9674 42.6646 66.4953 36.0998 66.3504C29.5867 66.4692 23.1595 64.8503 17.4798 61.6604C12.0739 58.578 7.66083 54.0157 4.75976 48.5104C1.64773 42.5216 0.0868167 35.8482 0.219765 29.1004C0.0987084 24.2143 1.02179 19.3585 2.92735 14.8576C4.8329 10.3567 7.67704 6.31427 11.2698 3.00041L20.8498 12.6705C18.6913 14.836 16.9909 17.4138 15.8498 20.2504C14.684 23.1076 14.0862 26.1646 14.0898 29.2504C14.0898 35.8304 16.0631 41.0271 20.0098 44.8404C23.9564 48.6538 29.3164 50.5637 36.0898 50.5704C40.0849 50.6549 44.0422 49.7805 47.6298 48.0204C50.8569 46.4204 53.5418 43.9059 55.3498 40.7904C57.223 37.4863 58.1696 33.7378 58.0898 29.9404C58.0898 23.4804 56.4231 18.3305 53.0898 14.4905L42.6397 14.4905L42.6397 33.0304L29.8298 33.0304L29.8297 0.870398Z" fill="#474747"/>
<path d="M71.8799 297.4L71.8799 311.77L3.42993 311.77L3.42993 295.83L46.2599 295.83L21.6199 275.69L21.6199 272.56L46.3599 252.22L3.42993 252.22L3.42993 236.29L71.8799 236.29L71.8799 250.66L42.7399 274.03L71.8799 297.4Z" fill="#474747"/>
</svg>
