<svg width="521" height="124" viewBox="0 0 521 124" fill="currentColor" xmlns="http://www.w3.org/2000/svg">
<g clip-path="url(#clip0_105_607)">
<path d="M297.47 50.09C282.19 40.09 265.58 37.8 248.8 35.98C235.73 34.56 222.72 32.71 210.8 26.67C200.73 21.58 194.2 13.67 191.41 2.66998C191.271 1.85894 191.174 1.04114 191.12 0.219971C200.93 12.73 214.51 15.51 228.46 17.43C244.46 19.64 260.62 20.98 275.82 26.97C285.66 30.85 294.08 36.39 297.02 47.47C297.15 48.07 297.22 48.7 297.47 50.09Z" fill="#487257"/>
<path d="M66.25 81.7399V112.25C62.7035 116.03 58.3435 118.954 53.5 120.8C48.1791 122.844 42.5195 123.861 36.82 123.8C30.2184 123.944 23.686 122.432 17.82 119.4C12.4724 116.56 8.08228 112.205 5.19999 106.88C2.1396 101.069 0.608216 94.5755 0.749987 88.0099C0.620939 81.493 2.22936 75.0593 5.40999 69.3698C8.49569 63.969 13.0573 59.56 18.56 56.6599C24.5476 53.5435 31.2213 51.9791 37.97 52.1099C42.8798 52.0417 47.7521 52.974 52.29 54.8499C56.7346 56.8011 60.7409 59.6273 64.07 63.1599L54.41 72.7498C52.2534 70.5852 49.6774 68.8837 46.84 67.7498C43.9984 66.5904 40.959 65.9928 37.89 65.9899C31.31 65.9899 26.11 67.9598 22.29 71.8998C18.47 75.8398 16.5633 81.2032 16.57 87.9899C16.487 91.9892 17.3649 95.9501 19.13 99.5399C20.7419 102.775 23.2749 105.461 26.41 107.26C29.7141 109.133 33.4626 110.08 37.26 110C43.72 110 48.87 108.333 52.71 105V94.5399H34.09V81.7399H66.25Z" fill="#231F20"/>
<path d="M96.79 101.2H87.5V123.79H71.5V55.34H104.81C109.313 55.2374 113.774 56.2292 117.81 58.23C121.417 60.0479 124.411 62.8854 126.42 66.39C128.473 70.1044 129.505 74.2969 129.41 78.54C129.538 83.3278 128.114 88.0285 125.35 91.94C122.487 95.7628 118.451 98.5442 113.86 99.86L133.22 123.86H114.19L96.79 101.2ZM110.79 71.57C108.93 69.8833 106.307 69.0366 102.92 69.03H87.41V88.29H102.96C106.407 88.29 109.047 87.46 110.88 85.8C112.645 83.8476 113.618 81.307 113.608 78.6753C113.599 76.0436 112.608 73.51 110.83 71.57H110.79Z" fill="#231F20"/>
<path d="M150.03 119.34C144.591 116.501 140.103 112.131 137.12 106.77C134.136 100.927 132.581 94.4603 132.581 87.8998C132.581 81.3394 134.136 74.8725 137.12 69.0298C140.101 63.6694 144.59 59.3021 150.03 56.4698C156.082 53.5414 162.717 52.0203 169.44 52.0203C176.163 52.0203 182.799 53.5414 188.85 56.4698C194.288 59.3022 198.773 63.6698 201.75 69.0298C204.741 74.8703 206.301 81.3381 206.301 87.8998C206.301 94.4616 204.741 100.929 201.75 106.77C198.771 112.13 194.286 116.5 188.85 119.34C182.799 122.268 176.163 123.789 169.44 123.789C162.717 123.789 156.082 122.268 150.03 119.34ZM180.34 106.82C183.471 105.062 186.018 102.428 187.67 99.2399C189.375 95.7026 190.26 91.8265 190.26 87.8998C190.26 83.9732 189.375 80.0971 187.67 76.5598C186.016 73.3743 183.468 70.7401 180.34 68.9799C177.005 67.1434 173.246 66.2158 169.44 66.2899C165.649 66.2108 161.905 67.1391 158.59 68.9799C155.482 70.7535 152.951 73.3852 151.3 76.5598C149.595 80.0971 148.71 83.9732 148.71 87.8998C148.71 91.8265 149.595 95.7026 151.3 99.2399C152.948 102.417 155.48 105.049 158.59 106.82C161.893 108.666 165.626 109.604 169.41 109.54C173.229 109.61 176.999 108.672 180.34 106.82Z" fill="#231F20"/>
<path d="M350.41 55.3398H364.78V123.79H348.88V80.9599L328.74 105.6H325.61L305.27 80.8599V123.79H289.34V55.3398H303.71L327.08 84.4799L350.41 55.3398Z" fill="#231F20"/>
<path d="M369.26 55.3398H385.26V123.79H369.26V55.3398Z" fill="#231F20"/>
<path d="M435.01 55.3398H450.95V123.79H436.58L405.58 81.4499L405.78 99.9299V123.79H389.84V55.3398H404.21L435.21 97.8799L435.01 79.5898V55.3398Z" fill="#231F20"/>
<path d="M521 81.7399V112.25C517.453 116.03 513.093 118.954 508.25 120.8C502.932 122.843 497.276 123.861 491.58 123.8C484.978 123.944 478.446 122.431 472.58 119.4C467.232 116.56 462.842 112.205 459.96 106.88C456.903 101.068 455.375 94.5747 455.52 88.0099C455.401 81.4937 457.02 75.0633 460.21 69.3799C463.296 63.9791 467.857 59.5701 473.36 56.6699C479.348 53.5548 486.021 51.9905 492.77 52.1199C497.656 51.9989 502.512 52.922 507.013 54.8275C511.514 56.7331 515.556 59.5772 518.87 63.1699L509.2 72.7599C507.04 70.595 504.46 68.8936 501.62 67.7599C498.763 66.5941 495.706 65.9963 492.62 65.9999C486.04 65.9999 480.843 67.9699 477.03 71.9099C473.217 75.8499 471.307 81.2133 471.3 87.9999C471.225 91.9976 472.109 95.9549 473.88 99.5399C475.477 102.772 477.992 105.461 481.11 107.27C484.414 109.143 488.163 110.09 491.96 110.01C498.42 110.01 503.57 108.343 507.41 105.01V94.5399H488.84V81.7399H521Z" fill="#231F20"/>
<path d="M224.47 123.79H210.1V55.3398H226.04V98.1699L246.18 73.5399H249.31L269.65 98.2798V55.3398H285.58V123.79H271.21L247.84 94.6498L224.47 123.79Z" fill="#231F20"/>
</g>
<defs>
<clipPath id="clip0_105_607">
<rect width="520.26" height="123.56" fill="white" transform="translate(0.73999 0.219971)"/>
</clipPath>
</defs>
</svg>
